<svg width="439" height="73" viewBox="0 0 439 73" fill="none" xmlns="http://www.w3.org/2000/svg">
<rect width="439" height="73" fill="white"/>
<path fill-rule="evenodd" clip-rule="evenodd" d="M0.143533 26.0147C-0.168616 26.7244 0.0449616 27.5025 0.623247 27.7532C1.19825 28.0039 1.92111 27.636 2.23325 26.9263C2.44925 26.4801 2.42329 25.956 2.16425 25.5329L9.55712 12.5888C9.82738 12.6216 10.1016 12.5834 10.3523 12.4781L15.248 17.4201C15.0549 18.2782 15.5007 19.152 16.3126 19.5069V51.3917C16.0098 51.5249 15.7488 51.7363 15.5568 52.0038L3.50154 45.6066L3.46211 45.4438C3.24196 44.7016 2.57497 44.2523 1.97368 44.4477C1.37568 44.6365 1.06682 45.395 1.29026 46.1405C1.49397 46.8209 2.06569 47.2507 2.62426 47.1758L8.4827 58.5051L8.45641 58.5377C8.02927 59.1562 8.2987 60.0873 9.04784 60.6212C9.47832 60.9463 10.0369 61.0546 10.5593 60.9142L14.5547 63.5773C14.6343 64.1605 14.981 64.6747 15.4944 64.9706C15.9598 65.2554 16.5275 65.3244 17.0486 65.1595L26.334 70.4074C26.4622 70.9739 27.0043 71.4655 27.7272 71.5892C28.5223 71.7292 29.2583 71.3841 29.5179 70.7981L49.6199 67.1779C50.0737 67.4824 50.6454 67.5583 51.1642 67.383C51.9889 67.1258 52.5146 66.3998 52.3931 65.7162L66.3639 51.2127C66.9882 51.2452 67.6224 50.7667 67.8852 50.0081C68.101 49.4458 68.0144 48.8134 67.6552 48.3283L68.4405 29.8139C68.8578 29.4754 69.0812 28.8405 68.9728 28.1666C68.8414 27.4179 68.3386 26.8514 67.7571 26.7374L62.4342 14.5063C62.6511 13.9464 62.4474 13.2074 61.8822 12.6995C61.4815 12.3159 60.9192 12.1464 60.3708 12.2437L47.4283 2.99146C47.4612 2.31755 46.8895 1.66319 46.0615 1.48413C45.5462 1.35892 45.0015 1.47141 44.5796 1.79015L27.829 0.627923C27.507 0.155869 26.8367 -0.0980678 26.1336 0.0354085C25.5255 0.125466 25.012 0.529992 24.7864 1.09672L10.5297 9.55464C10.0019 9.5207 9.48588 9.71972 9.12012 10.0983C8.65893 10.5182 8.45644 11.1486 8.58783 11.7554L1.2771 25.1129C0.764513 25.1929 0.333116 25.5361 0.143533 26.0147ZM0.803942 26.9035C0.573938 26.8026 0.485224 26.4933 0.610079 26.2068C0.738222 25.9236 1.02408 25.7771 1.25409 25.8747C1.48737 25.9789 1.5728 26.2882 1.44794 26.5714C1.32309 26.8546 1.03394 27.0011 0.803942 26.9035ZM9.36648 10.6062C9.10362 10.8666 9.05762 11.2508 9.26462 11.4657C9.47162 11.6805 9.85277 11.6447 10.1189 11.3875C10.3818 11.1271 10.4278 10.7397 10.2208 10.5248C10.0138 10.3099 9.62934 10.3458 9.36648 10.6062ZM11.3973 11.4982L11.4335 11.4201L24.4876 6.94698C24.6519 7.13254 24.8688 7.2823 25.1119 7.38648L25.7263 16.1993C25.3973 16.3858 25.1336 16.6675 24.9706 17.0066H18.6686C18.3732 16.3729 17.7336 15.9664 17.029 15.9649C16.6979 15.9655 16.3735 16.058 16.0926 16.2318L11.3973 11.4982ZM25.1282 2.35012L13.7366 9.10864L24.1194 5.55358C24.2589 5.03207 24.6409 4.60765 25.1479 4.41088L25.4633 2.57475C25.3415 2.5158 25.2287 2.44019 25.1282 2.35012ZM25.6409 1.25624C25.5884 0.956727 25.8348 0.663728 26.1962 0.598618C26.5576 0.530251 26.8961 0.715821 26.9519 1.01207C27.0045 1.30833 26.7548 1.60133 26.3966 1.66644C26.0352 1.73806 25.6935 1.54924 25.6409 1.25624ZM27.8519 1.89436C27.6338 2.25053 27.2931 2.51649 26.8925 2.64314L26.5935 4.38486C26.8599 4.48303 27.0995 4.64131 27.2934 4.84715L40.364 2.75708L27.8519 1.89436ZM44.3299 3.58396L40.0782 16.0104C39.8764 16.057 39.6842 16.1374 39.5097 16.2481L27.8487 6.22096L44.3299 3.58396ZM45.5489 4.43694L41.4943 16.2839C41.7614 16.4675 41.9746 16.718 42.112 17.0099H49.5246C49.5702 16.9198 49.6218 16.8328 49.679 16.7494L45.5489 4.43694ZM45.2894 2.43476C45.3486 2.14176 45.6903 1.96595 46.0517 2.04409C46.4131 2.12222 46.653 2.42173 46.5906 2.72125C46.5281 3.01425 46.1864 3.18678 45.825 3.11191C45.4636 3.03052 45.2237 2.72775 45.2894 2.43476ZM59.4804 13.152L46.9782 4.21227L50.9277 15.9843C51.5055 15.9098 52.0841 16.1158 52.4818 16.5378L59.4574 13.5264C59.4474 13.4013 59.454 13.2754 59.4771 13.152H59.4804ZM60.157 14.7961C60.3063 14.9193 60.4722 15.0212 60.6499 15.0989L63.7483 30.2307L52.6557 18.8721C52.8562 18.5814 52.9701 18.2407 52.9843 17.8889L60.157 14.7961ZM60.7256 13.1162C60.5285 13.3376 60.5942 13.7218 60.8669 13.9692C61.1429 14.2133 61.524 14.2329 61.7212 14.0082C61.9183 13.7804 61.8592 13.3962 61.5832 13.152C61.3072 12.9079 60.9228 12.8916 60.7289 13.1162H60.7256ZM62.7891 18.4553L66.6071 27.2225C66.2834 27.6902 66.1915 28.2783 66.3574 28.821L65.3487 30.9502L62.7891 18.4553ZM66.6992 41.3516L67.1592 30.439L66.2458 32.3598C66.5528 32.9369 66.5239 33.6327 66.1702 34.1829L66.6992 41.3516ZM67.067 49.165C67.3463 49.2659 67.481 49.6305 67.3562 49.9821H67.3594C67.2346 50.3337 66.9126 50.5355 66.63 50.4379C66.3474 50.337 66.2193 49.9723 66.3409 49.6207C66.4624 49.2691 66.7844 49.0673 67.067 49.165ZM64.5829 33.2062C64.5829 33.5774 64.8556 33.8769 65.1842 33.8769C65.516 33.8769 65.7888 33.5774 65.7888 33.2062C65.7888 32.8319 65.516 32.5323 65.1842 32.5323C64.8556 32.5323 64.5829 32.8319 64.5829 33.2062ZM65.7889 48.3739C65.5851 48.5839 65.4313 48.8364 65.3388 49.1129C65.296 49.2389 65.2652 49.3686 65.2468 49.5003L58.9875 53.7097L64.8361 35.3842L65.7889 48.3739ZM55.3961 60.784L63.3936 52.4824L59.2963 55.2366C59.2412 55.6073 59.0792 55.9544 58.8297 56.236C58.5728 56.5385 58.2252 56.7518 57.8374 56.8448L55.3961 60.784ZM56.4901 56.3076L51.2757 64.7135V64.7102C50.9757 64.6612 50.6683 64.6835 50.3787 64.7753C49.9672 64.8967 49.61 65.1541 49.3667 65.5046L38.629 63.1475C38.5811 62.8411 38.4569 62.5513 38.2675 62.3044L41.78 54.9012C42.3436 54.7834 42.8184 54.4095 43.0614 53.892H49.5244C49.7712 54.4343 50.2754 54.8183 50.8678 54.9152C51.4602 55.012 52.0622 54.8088 52.4717 54.3738L56.3324 55.5491C56.3093 55.8117 56.3642 56.0754 56.4901 56.3076ZM51.0853 66.8393C51.4369 66.7319 51.6505 66.4096 51.5651 66.1231C51.4763 65.8334 51.1215 65.6901 50.7732 65.7976C50.4216 65.905 50.2048 66.2273 50.2935 66.5138C50.3789 66.8035 50.7305 66.95 51.0853 66.8393ZM46.7613 66.4031L30.5562 69.3266L36.2306 65.1725C36.98 65.4352 37.8147 65.1798 38.2842 64.5442L46.7613 66.4031ZM28.5681 69.0108L34.6106 64.5832L18.0341 64.1275L17.998 64.2512L26.784 69.2126C27.1884 68.919 27.6985 68.8068 28.1903 68.9033C28.3196 68.9264 28.4462 68.9624 28.5681 69.0108ZM28.5354 70.6027C28.4861 70.9023 28.1477 71.0911 27.7862 71.026C27.4248 70.9609 27.1718 70.6679 27.2244 70.3749C27.2769 70.0753 27.6121 69.8865 27.9735 69.9516C28.3382 70.0167 28.5847 70.3097 28.5354 70.6027ZM17.1634 62.1546C17.3877 62.2919 17.583 62.471 17.7384 62.682L35.0312 63.1573C35.0444 63.0555 35.0675 62.9552 35.1002 62.8578L28.1213 54.885C27.2909 55.0637 26.446 54.6505 26.0841 53.8888H18.6683C18.4872 54.2708 18.1784 54.579 17.7943 54.7612L17.1634 62.1546ZM17.7553 53.0879C17.7553 53.4949 17.43 53.8269 17.0324 53.8269H17.0291C16.6283 53.8269 16.2997 53.4949 16.2997 53.0879C16.2997 52.681 16.6283 52.3522 17.0324 52.3522C17.43 52.3522 17.7553 52.681 17.7553 53.0879ZM16.7069 64.2447C16.8876 63.9321 16.7529 63.5089 16.4046 63.3071C16.0596 63.0987 15.6292 63.1866 15.4517 63.5024C15.2677 63.8149 15.4024 64.2349 15.7507 64.44C16.099 64.6451 16.5262 64.5572 16.7069 64.2447ZM15.7607 61.8649L3.8434 46.9317L15.212 53.2409C15.2665 53.9353 15.7114 54.5399 16.362 54.8036L15.7607 61.8649ZM11.3776 59.9441L14.0522 61.7216L5.4206 50.5876L9.61975 58.0331C9.9708 58.0601 10.3074 58.1829 10.5923 58.3879C11.1509 58.7819 11.4466 59.3972 11.3809 59.9441H11.3776ZM9.89247 59.2962C10.1948 59.5111 10.2999 59.8822 10.129 60.1297L10.1258 60.1264C9.95818 60.3771 9.57704 60.4031 9.27146 60.1915C8.97246 59.9799 8.86732 59.6055 9.03818 59.3613C9.20904 59.1107 9.59347 59.0846 9.89247 59.2962ZM28.4303 53.0879C28.4303 52.6907 28.1182 52.3684 27.7206 52.3684C27.324 52.3738 27.0058 52.6949 27.0076 53.0879C27.004 53.4822 27.3227 53.8053 27.7206 53.8106C28.1186 53.8053 28.4373 53.4822 28.4336 53.0879H28.4303ZM28.5579 37.3309C28.4211 37.4689 28.2345 37.5474 28.0393 37.5491C27.8444 37.5474 27.6582 37.4688 27.522 37.3307C27.3857 37.1927 27.3106 37.0065 27.3132 36.8134C27.3106 36.62 27.3856 36.4334 27.5218 36.2948C27.658 36.1562 27.8441 36.0769 28.0393 36.0744C28.4402 36.0744 28.7688 36.4064 28.7688 36.8134C28.7705 37.0068 28.6946 37.193 28.5579 37.3309ZM37.5579 63.6717C37.5579 63.2647 37.2327 62.9359 36.8318 62.9359C36.6366 62.9376 36.4501 63.0161 36.3133 63.1541C36.1765 63.2921 36.1006 63.4783 36.1024 63.6717C36.1024 64.0786 36.4309 64.4107 36.8318 64.4107C37.027 64.4081 37.2132 64.3288 37.3494 64.1902C37.4855 64.0516 37.5606 63.8651 37.5579 63.6717ZM40.3574 54.5822L37.0256 61.5979C36.6894 61.5641 36.3503 61.6238 36.0465 61.7705L29.2779 54.0418C29.5583 53.5871 29.6263 53.0345 29.4643 52.5264C29.3025 52.0183 28.9265 51.6045 28.4335 51.3918V38.6105C28.5414 38.5874 28.6469 38.5547 28.7489 38.5128L39.8546 52.1536C39.3686 52.971 39.5858 54.0203 40.3574 54.5822ZM42.1516 53.0879C42.1516 52.681 41.823 52.3521 41.4221 52.3521C41.0246 52.3521 40.696 52.681 40.696 53.0879C40.696 53.4948 41.0246 53.8269 41.4222 53.8269C41.8292 53.8215 42.1552 53.4912 42.1516 53.0879ZM51.1674 52.3684C51.5617 52.3684 51.8772 52.6907 51.8772 53.0879C51.8772 53.485 51.5617 53.8106 51.1674 53.8106C50.7732 53.8106 50.4544 53.4883 50.4544 53.0879C50.4544 52.6907 50.7732 52.3684 51.1674 52.3684ZM51.1674 18.5465C51.3618 18.5439 51.5471 18.4649 51.6827 18.3269C51.8182 18.189 51.8929 18.0033 51.8903 17.8107C51.8903 17.4038 51.5683 17.075 51.1674 17.075C50.9722 17.0767 50.7857 17.1552 50.6489 17.2931C50.5121 17.4311 50.4363 17.6173 50.438 17.8107C50.4354 18.0044 50.511 18.1911 50.6479 18.3292C50.7849 18.4674 50.972 18.5456 51.1674 18.5465ZM58.4157 54.9891C58.6425 55.1877 58.6227 55.5751 58.3829 55.8551C58.1365 56.1351 57.7619 56.2002 57.5385 55.9983C57.315 55.7997 57.3315 55.4123 57.5746 55.1356C57.8177 54.8524 58.1956 54.7938 58.4157 54.9891ZM63.7222 34.1764C63.538 33.8858 63.4411 33.5493 63.4429 33.2062C63.4429 32.8481 63.5414 32.5161 63.7123 32.2458L51.8771 20.1287V51.3917C52.5331 51.678 52.9641 52.3129 52.9844 53.0228L56.9996 54.2436C57.1243 54.1315 57.2635 54.0362 57.4136 53.9604L63.7222 34.1764ZM24.9046 18.4521C25.1609 19.152 25.8279 19.6566 26.6131 19.6566C26.7719 19.6541 26.9297 19.6322 27.083 19.5915L38.5272 33.6881C38.3074 34.248 38.3801 34.8792 38.7215 35.3757C39.063 35.8721 39.6294 36.17 40.2357 36.172C40.7249 36.1678 41.1922 35.9707 41.5344 35.6243C41.8766 35.2779 42.0654 34.8108 42.0593 34.3262C42.0604 33.6888 41.7301 33.0958 41.1853 32.757V19.5069C41.6484 19.3045 42.008 18.9235 42.1809 18.4521H49.4588C49.6362 18.9274 49.9943 19.3115 50.4543 19.5069V51.3918C49.9912 51.5942 49.6316 51.9752 49.4588 52.4465H43.1305C42.8192 51.584 41.9056 51.0887 41.0046 51.2941L29.7412 37.4645C29.82 37.2594 29.8594 37.0413 29.8594 36.8134C29.8656 36.3293 29.6771 35.8627 29.3357 35.5164C28.9942 35.1701 28.5277 34.9726 28.0391 34.9675C27.0224 34.98 26.2079 35.806 26.2189 36.8134C26.2154 37.4182 26.5097 37.9868 27.0074 38.337V51.3918C26.5456 51.5949 26.1872 51.9758 26.0151 52.4466H18.734C18.5639 51.9746 18.2049 51.593 17.7417 51.3918V19.5069C18.2047 19.3053 18.5636 18.9239 18.734 18.4521H24.9046ZM25.8245 6.4814C26.2188 6.4814 26.5474 6.1884 26.5474 5.82377C26.5474 5.45915 26.2188 5.16941 25.8245 5.16941C25.4204 5.16941 25.0918 5.46241 25.0918 5.82051C25.0918 6.17862 25.4204 6.4814 25.8212 6.4814H25.8245ZM26.6165 17.075C27.0141 17.075 27.3394 17.4038 27.3394 17.8107C27.343 18.2122 27.0184 18.5411 26.6132 18.5465C26.418 18.5448 26.2315 18.4663 26.0947 18.3283C25.9579 18.1903 25.882 18.0041 25.8838 17.8107C25.882 17.6167 25.9584 17.4301 26.0959 17.292C26.2334 17.1539 26.4207 17.0758 26.6165 17.075ZM40.9653 34.3261C40.9653 33.9192 40.6367 33.5904 40.2358 33.5904C39.835 33.5904 39.5097 33.9192 39.5097 34.3261C39.5097 34.7363 39.835 35.0619 40.2358 35.0619C40.6367 35.0619 40.9653 34.7363 40.9653 34.3261ZM40.9912 18.3283C40.8544 18.4663 40.6679 18.5448 40.4727 18.5465C40.2778 18.5448 40.0916 18.4662 39.9553 18.3281C39.8191 18.19 39.7439 18.0038 39.7466 17.8107C39.7466 17.4038 40.0718 17.075 40.4727 17.075C40.8736 17.075 41.2021 17.4038 41.2021 17.8107C41.2039 18.0041 41.128 18.1903 40.9912 18.3283ZM39.7626 19.5069C38.9539 19.1553 38.5063 18.2887 38.6915 17.4331L26.8859 7.28554C26.7785 7.34745 26.6651 7.39871 26.5475 7.43856L27.1521 16.0462C27.9205 16.2964 28.4382 17.0093 28.4335 17.8107C28.4335 18.1363 28.3513 18.4391 28.2035 18.6995L39.5162 32.6333C39.5959 32.5986 39.6784 32.5703 39.7626 32.5486V19.5069ZM16.5125 18.3292C16.3763 18.1919 16.3008 18.0065 16.3026 17.814L16.2993 17.8107C16.2993 17.4038 16.6279 17.075 17.0287 17.075C17.4296 17.075 17.7581 17.4038 17.7581 17.8107C17.7599 18.0041 17.684 18.1903 17.5472 18.3283C17.4104 18.4663 17.2239 18.5448 17.0287 18.5465C16.8344 18.5448 16.6487 18.4666 16.5125 18.3292ZM67.9215 27.649C67.6257 27.6978 67.4385 28.0364 67.5009 28.401C67.5666 28.7689 67.8525 29.0261 68.1449 28.974C68.4406 28.9252 68.6246 28.5833 68.5622 28.2187C68.503 27.8508 68.2139 27.5937 67.9215 27.649ZM2.5716 45.5741C2.66031 45.8704 2.53545 46.1764 2.29888 46.2513H2.2956C2.05903 46.3261 1.78959 46.1503 1.70417 45.8508C1.61873 45.5546 1.73702 45.2485 1.98017 45.1737C2.21674 45.0988 2.48288 45.2778 2.5716 45.5741Z" fill="#50C4CF"/>
<path d="M107.44 33L117.7 1.5H109.825L102.85 24.675L95.875 1.5H88L98.26 33H107.44ZM133.836 12.615C132.261 10.77 130.011 9.87 127.131 9.87C124.161 9.87 121.641 11.04 119.526 13.335C117.411 15.63 116.376 18.42 116.376 21.75C116.376 25.08 117.411 27.915 119.526 30.21C121.641 32.505 124.161 33.63 127.131 33.63C130.011 33.63 132.261 32.73 133.836 30.885V33H140.586V10.5H133.836V12.615ZM124.611 25.755C123.621 24.765 123.126 23.415 123.126 21.75C123.126 20.085 123.621 18.735 124.611 17.745C125.601 16.755 126.906 16.26 128.481 16.26C130.056 16.26 131.361 16.755 132.351 17.745C133.341 18.735 133.836 20.085 133.836 21.75C133.836 23.415 133.341 24.765 132.351 25.755C131.361 26.745 130.056 27.24 128.481 27.24C126.906 27.24 125.601 26.745 124.611 25.755ZM158.723 9.87C155.798 9.87 153.638 10.77 152.288 12.615V10.5H145.538V33H152.288V20.715C152.288 17.655 153.908 16.08 156.473 16.08C158.768 16.08 160.388 17.52 160.388 20.175V33H167.138V19.185C167.138 16.26 166.328 14.01 164.708 12.345C163.133 10.68 161.108 9.87 158.723 9.87ZM190.449 1.5H183.249V33H201.699V26.07H190.449V1.5ZM220.76 12.615C219.185 10.77 216.935 9.87 214.055 9.87C211.085 9.87 208.565 11.04 206.45 13.335C204.335 15.63 203.3 18.42 203.3 21.75C203.3 25.08 204.335 27.915 206.45 30.21C208.565 32.505 211.085 33.63 214.055 33.63C216.935 33.63 219.185 32.73 220.76 30.885V33H227.51V10.5H220.76V12.615ZM211.535 25.755C210.545 24.765 210.05 23.415 210.05 21.75C210.05 20.085 210.545 18.735 211.535 17.745C212.525 16.755 213.83 16.26 215.405 16.26C216.98 16.26 218.285 16.755 219.275 17.745C220.265 18.735 220.76 20.085 220.76 21.75C220.76 23.415 220.265 24.765 219.275 25.755C218.285 26.745 216.98 27.24 215.405 27.24C213.83 27.24 212.525 26.745 211.535 25.755ZM245.647 9.87C242.722 9.87 240.562 10.77 239.212 12.615V10.5H232.462V33H239.212V20.715C239.212 17.655 240.832 16.08 243.397 16.08C245.692 16.08 247.312 17.52 247.312 20.175V33H254.062V19.185C254.062 16.26 253.252 14.01 251.632 12.345C250.057 10.68 248.032 9.87 245.647 9.87ZM275.213 12.795C273.638 10.86 271.478 9.87 268.643 9.87C265.493 9.87 262.838 10.995 260.723 13.245C258.608 15.45 257.573 18.15 257.573 21.3C257.573 24.45 258.608 27.15 260.723 29.4C262.838 31.605 265.493 32.73 268.643 32.73C271.478 32.73 273.638 31.74 275.213 29.805V31.875C275.213 34.98 273.323 36.69 270.128 36.69C267.743 36.69 266.033 35.745 264.998 33.855L259.238 37.185C261.263 40.83 264.818 42.63 269.903 42.63C273.188 42.63 276.023 41.73 278.318 39.885C280.613 38.085 281.783 35.43 281.783 31.875V10.5H275.213V12.795ZM265.853 25.08C264.818 24.135 264.323 22.875 264.323 21.3C264.323 19.725 264.818 18.465 265.853 17.52C266.888 16.575 268.193 16.08 269.768 16.08C271.343 16.08 272.648 16.575 273.683 17.52C274.718 18.465 275.213 19.725 275.213 21.3C275.213 22.875 274.718 24.135 273.683 25.08C272.648 26.025 271.343 26.52 269.768 26.52C268.193 26.52 266.888 26.025 265.853 25.08Z" fill="black"/>
<path d="M298.21 1.5V33H310.81C315.175 33 318.775 31.515 321.7 28.5C324.625 25.485 326.11 21.705 326.11 17.25C326.11 12.795 324.625 9.06 321.7 6.045C318.775 3.03 315.175 1.5 310.81 1.5H298.21ZM305.41 26.07V8.43H310.81C313.285 8.43 315.31 9.24 316.84 10.86C318.415 12.435 319.18 14.595 319.18 17.25C319.18 19.905 318.415 22.065 316.84 23.685C315.31 25.26 313.285 26.07 310.81 26.07H305.41ZM349.193 30.21C351.488 27.915 352.658 25.08 352.658 21.75C352.658 18.42 351.488 15.63 349.193 13.335C346.898 11.04 344.063 9.87 340.733 9.87C337.403 9.87 334.568 11.04 332.273 13.335C329.978 15.63 328.808 18.42 328.808 21.75C328.808 25.08 329.978 27.915 332.273 30.21C334.568 32.505 337.403 33.63 340.733 33.63C344.063 33.63 346.898 32.505 349.193 30.21ZM337.043 25.575C336.053 24.585 335.558 23.325 335.558 21.75C335.558 20.175 336.053 18.915 337.043 17.925C338.033 16.935 339.248 16.44 340.733 16.44C342.218 16.44 343.433 16.935 344.423 17.925C345.413 18.915 345.908 20.175 345.908 21.75C345.908 23.325 345.413 24.585 344.423 25.575C343.433 26.565 342.218 27.06 340.733 27.06C339.248 27.06 338.033 26.565 337.043 25.575ZM367.276 33.63C371.641 33.63 375.466 31.38 377.446 27.825L371.551 24.45C370.786 26.115 369.301 26.97 367.186 26.97C364.261 26.97 362.101 24.81 362.101 21.75C362.101 18.69 364.261 16.53 367.186 16.53C369.301 16.53 370.741 17.385 371.551 19.05L377.446 15.63C375.466 12.165 371.596 9.87 367.276 9.87C363.856 9.87 361.021 10.995 358.726 13.29C356.476 15.585 355.351 18.375 355.351 21.75C355.351 25.125 356.476 27.915 358.726 30.21C361.021 32.505 363.856 33.63 367.276 33.63ZM393.348 10.5H388.713V4.2L381.963 6.225V10.5H378.363V16.98H381.963V24.945C381.963 28.23 382.773 30.48 384.438 31.785C386.103 33.045 389.073 33.45 393.348 33V26.88C390.063 27.06 388.713 26.745 388.713 24.945V16.98H393.348V10.5ZM416.869 30.21C419.164 27.915 420.334 25.08 420.334 21.75C420.334 18.42 419.164 15.63 416.869 13.335C414.574 11.04 411.739 9.87 408.409 9.87C405.079 9.87 402.244 11.04 399.949 13.335C397.654 15.63 396.484 18.42 396.484 21.75C396.484 25.08 397.654 27.915 399.949 30.21C402.244 32.505 405.079 33.63 408.409 33.63C411.739 33.63 414.574 32.505 416.869 30.21ZM404.719 25.575C403.729 24.585 403.234 23.325 403.234 21.75C403.234 20.175 403.729 18.915 404.719 17.925C405.709 16.935 406.924 16.44 408.409 16.44C409.894 16.44 411.109 16.935 412.099 17.925C413.089 18.915 413.584 20.175 413.584 21.75C413.584 23.325 413.089 24.585 412.099 25.575C411.109 26.565 409.894 27.06 408.409 27.06C406.924 27.06 405.709 26.565 404.719 25.575ZM430.902 10.5H424.152V33H430.902V22.83C430.902 20.805 431.622 19.365 433.017 18.555C434.457 17.7 435.987 17.43 437.652 17.7V10.05C434.592 10.05 431.757 11.625 430.902 14.505V10.5Z" fill="#50C4CF"/>
<path d="M88.4502 49.5V51.7H93.6002V67H95.9002V51.7H101.075V49.5H88.4502ZM103.617 54.5H101.442V67H103.617V60.375C103.617 59 103.992 58.025 104.767 57.4C105.542 56.775 106.442 56.5 107.517 56.55V54.275C105.642 54.275 104.342 55.05 103.617 56.6V54.5ZM118.27 61.125C118.27 63.925 116.82 65.25 114.645 65.25C112.72 65.25 111.545 64.075 111.545 62.05V54.5H109.37V62.175C109.37 65.35 111.295 67.325 114.22 67.325C116.045 67.325 117.395 66.625 118.27 65.2V67H120.445V54.5H118.27V61.125ZM129.981 54.175C128.156 54.175 126.806 54.875 125.931 56.3V54.5H123.756V67H125.931V60.375C125.931 57.575 127.381 56.25 129.556 56.25C131.481 56.25 132.656 57.425 132.656 59.45V67H134.831V59.325C134.831 56.15 132.906 54.175 129.981 54.175ZM148.243 56.65C147.168 55 145.593 54.175 143.543 54.175C141.768 54.175 140.243 54.8 139.018 56.075C137.793 57.325 137.168 58.85 137.168 60.675C137.168 62.5 137.793 64.025 139.018 65.3C140.243 66.575 141.768 67.2 143.543 67.2C145.568 67.2 147.143 66.375 148.243 64.7V66.475C148.243 68.85 146.668 70.3 144.068 70.3C142.043 70.3 140.668 69.6 139.993 68.2L138.093 69.275C139.118 71.25 141.218 72.325 144.018 72.325C145.768 72.325 147.268 71.8 148.518 70.775C149.768 69.75 150.393 68.325 150.393 66.475V54.5H148.243V56.65ZM148.243 60.675C148.243 61.95 147.818 63 146.968 63.85C146.118 64.7 145.068 65.125 143.793 65.125C142.518 65.125 141.468 64.7 140.618 63.85C139.768 63 139.343 61.95 139.343 60.675C139.343 59.425 139.768 58.375 140.618 57.525C141.468 56.675 142.518 56.25 143.793 56.25C145.068 56.25 146.118 56.675 146.968 57.525C147.818 58.375 148.243 59.425 148.243 60.675ZM166.738 54.5H163.413V51L161.238 51.65V54.5H158.763V56.6H161.238V63.375C161.238 66.475 162.938 67.5 166.738 67V65.05C164.513 65.15 163.413 65.3 163.413 63.375V56.6H166.738V54.5ZM177.911 52.875H180.236L177.586 49.5H175.186L172.536 52.875H174.861L176.386 50.85L177.911 52.875ZM179.736 56.65C178.661 55 177.086 54.175 175.011 54.175C173.261 54.175 171.761 54.825 170.536 56.1C169.311 57.375 168.686 58.925 168.686 60.75C168.686 62.575 169.311 64.15 170.536 65.425C171.761 66.7 173.261 67.325 175.011 67.325C177.086 67.325 178.661 66.5 179.736 64.85V67H181.911V54.5H179.736V56.65ZM175.286 65.225C174.036 65.225 172.986 64.8 172.136 63.95C171.286 63.075 170.861 62.025 170.861 60.75C170.861 59.475 171.286 58.425 172.136 57.575C172.986 56.7 174.036 56.275 175.286 56.275C176.561 56.275 177.611 56.7 178.461 57.575C179.311 58.425 179.736 59.475 179.736 60.75C179.736 62.025 179.311 63.075 178.461 63.95C177.611 64.8 176.561 65.225 175.286 65.225ZM198.707 54.175C196.957 54.175 195.657 54.875 194.782 56.3C194.007 54.875 192.782 54.175 191.107 54.175C189.482 54.175 188.232 54.85 187.382 56.175V54.5H185.207V67H187.382V60.05C187.382 57.525 188.757 56.25 190.582 56.25C192.207 56.25 193.232 57.375 193.232 59.3V67H195.407V60.05C195.407 57.475 196.607 56.25 198.482 56.25C200.157 56.25 201.232 57.375 201.232 59.3V67H203.407V59.225C203.407 56.125 201.507 54.175 198.707 54.175ZM219.472 54.5H216.147V51L213.972 51.65V54.5H211.497V56.6H213.972V63.375C213.972 66.475 215.672 67.5 219.472 67V65.05C217.247 65.15 216.147 65.3 216.147 63.375V56.6H219.472V54.5ZM233.021 52.95C233.021 54.05 232.846 54.5 231.746 54.5H230.746V61.125C230.746 63.925 229.296 65.25 227.121 65.25C225.196 65.25 224.021 64.075 224.021 62.05V54.5H221.846V62.175C221.846 65.35 223.771 67.325 226.696 67.325C228.521 67.325 229.871 66.625 230.746 65.2V67H232.921V56.075C234.446 55.775 234.946 54.75 234.946 52.95V52.65H233.021V52.95ZM247.307 64.675L243.382 54.5H241.032L246.032 67H248.582L253.582 54.5H251.232L247.307 64.675ZM263.821 52.875H265.996L263.521 49.725H261.296L258.821 52.875H260.996L262.421 50.975L263.821 52.875ZM265.771 56.65C264.696 55 263.121 54.175 261.046 54.175C259.296 54.175 257.796 54.825 256.571 56.1C255.346 57.375 254.721 58.925 254.721 60.75C254.721 62.575 255.346 64.15 256.571 65.425C257.796 66.7 259.296 67.325 261.046 67.325C263.121 67.325 264.696 66.5 265.771 64.85V67H267.946V54.5H265.771V56.65ZM261.321 65.225C260.071 65.225 259.021 64.8 258.171 63.95C257.321 63.075 256.896 62.025 256.896 60.75C256.896 59.475 257.321 58.425 258.171 57.575C259.021 56.7 260.071 56.275 261.321 56.275C262.596 56.275 263.646 56.7 264.496 57.575C265.346 58.425 265.771 59.475 265.771 60.75C265.771 62.025 265.346 63.075 264.496 63.95C263.646 64.8 262.596 65.225 261.321 65.225ZM264.921 50.575H266.871L269.246 47.5H266.771L264.921 50.575ZM277.467 54.175C275.642 54.175 274.292 54.875 273.417 56.3V54.5H271.242V67H273.417V60.375C273.417 57.575 274.867 56.25 277.042 56.25C278.967 56.25 280.142 57.425 280.142 59.45V67H282.317V59.325C282.317 56.15 280.392 54.175 277.467 54.175ZM293.478 57.875C293.478 56.8 294.478 56.2 295.703 56.2C297.028 56.2 297.928 56.725 298.378 57.8L300.203 56.775C299.403 55.15 297.728 54.175 295.703 54.175C294.428 54.175 293.378 54.525 292.528 55.225C291.703 55.925 291.278 56.825 291.278 57.9C291.278 60.55 293.828 61.2 295.803 61.725C297.178 62.05 298.278 62.6 298.278 63.575C298.278 64.75 297.228 65.275 295.803 65.275C294.278 65.275 293.103 64.525 292.703 63.325L290.828 64.4C291.553 66.175 293.378 67.325 295.803 67.325C297.178 67.325 298.278 66.975 299.153 66.3C300.028 65.625 300.478 64.7 300.478 63.575C300.503 60.9 297.903 60.175 295.953 59.75C294.578 59.375 293.478 58.85 293.478 57.875ZM309.428 49.5L307.428 52.8H309.528L312.053 49.5H309.428ZM313.953 52.95C313.953 54.05 313.778 54.5 312.678 54.5H311.678V61.125C311.678 63.925 310.228 65.25 308.053 65.25C306.128 65.25 304.953 64.075 304.953 62.05V54.5H302.778V62.175C302.778 65.35 304.703 67.325 307.628 67.325C309.453 67.325 310.803 66.625 311.678 65.2V67H313.853V56.075C315.378 55.775 315.878 54.75 315.878 52.95V52.65H313.953V52.95ZM323.04 67.325C325.465 67.325 327.59 66.05 328.665 64.075L326.815 63C326.115 64.325 324.715 65.175 323.04 65.175C321.79 65.175 320.74 64.75 319.89 63.9C319.065 63.05 318.64 62 318.64 60.75C318.64 59.475 319.065 58.425 319.89 57.575C320.74 56.725 321.79 56.3 323.04 56.3C324.715 56.3 326.115 57.175 326.74 58.5L328.565 57.45C327.59 55.45 325.515 54.175 323.04 54.175C321.165 54.175 319.59 54.8 318.34 56.075C317.09 57.325 316.465 58.875 316.465 60.75C316.465 62.625 317.09 64.175 318.34 65.45C319.59 66.7 321.165 67.325 323.04 67.325ZM341.487 60.55L347.462 54.5H344.662L339.262 60.025V49.5H337.087V67H339.262V61.075L344.962 67H347.662L341.487 60.55ZM355.909 54.175C354.084 54.175 352.734 54.875 351.859 56.3V49.5H349.684V67H351.859V60.375C351.859 57.575 353.309 56.25 355.484 56.25C357.409 56.25 358.584 57.425 358.584 59.45V67H360.759V59.325C360.759 56.15 358.834 54.175 355.909 54.175ZM374.346 65.425C375.621 64.15 376.271 62.6 376.271 60.75C376.271 58.9 375.621 57.35 374.346 56.075C373.071 54.8 371.496 54.175 369.671 54.175C367.846 54.175 366.271 54.8 364.996 56.075C363.721 57.35 363.096 58.9 363.096 60.75C363.096 62.6 363.721 64.15 364.996 65.425C366.271 66.7 367.846 67.325 369.671 67.325C371.496 67.325 373.071 66.7 374.346 65.425ZM369.671 65.2C368.446 65.2 367.396 64.775 366.546 63.925C365.696 63.075 365.271 62.025 365.271 60.75C365.271 59.475 365.696 58.425 366.546 57.575C367.396 56.725 368.446 56.3 369.671 56.3C370.921 56.3 371.971 56.725 372.821 57.575C373.671 58.425 374.096 59.475 374.096 60.75C374.096 62.025 373.671 63.075 372.821 63.925C371.971 64.775 370.921 65.2 369.671 65.2ZM385.935 52.875C385.86 52.3 386.06 52.15 386.385 52C386.86 51.75 387.31 51.2 387.31 50.25C387.31 48.975 386.335 48.375 385.16 48.375C384.06 48.375 383.085 48.85 382.61 50.025L384.01 50.625C384.21 50.025 384.71 49.85 385.16 49.85C385.585 49.85 385.785 50.025 385.785 50.275C385.785 50.675 385.46 50.825 385.31 50.9C385.285 50.925 384.91 51.15 384.91 51.15C384.435 51.525 384.41 51.775 384.41 52.875H385.935ZM390.835 61.75C390.885 61.425 390.91 61.1 390.91 60.775C390.91 58.95 390.335 57.4 389.16 56.125C388.01 54.825 386.51 54.175 384.685 54.175C382.76 54.175 381.185 54.8 379.96 56.05C378.735 57.3 378.135 58.875 378.135 60.75C378.135 62.65 378.76 64.225 379.985 65.475C381.235 66.7 382.86 67.325 384.835 67.325C387.285 67.325 389.11 66.375 390.335 64.5L388.485 63.45C387.735 64.675 386.535 65.275 384.885 65.275C382.51 65.275 380.785 63.975 380.36 61.75H390.835ZM384.685 56.225C386.685 56.225 388.335 57.475 388.71 59.85H380.36C380.735 57.65 382.36 56.225 384.685 56.225Z" fill="black" fill-opacity="0.6"/>
</svg>
