<svg width="269" height="45" viewBox="0 0 269 45" fill="none" xmlns="http://www.w3.org/2000/svg">
<path fill-rule="evenodd" clip-rule="evenodd" d="M0.0879507 16.0365C-0.103321 16.4739 0.0275505 16.9536 0.381898 17.1081C0.734234 17.2627 1.17717 17.0359 1.36844 16.5984C1.50079 16.3233 1.48488 16.0003 1.32616 15.7395L5.85618 7.76022C6.02179 7.78044 6.18982 7.75689 6.34344 7.69198L9.34331 10.7384C9.22498 11.2674 9.49815 11.806 9.99565 12.0248V31.6798C9.8101 31.7619 9.65017 31.8922 9.53253 32.0571L2.14559 28.1137L2.12143 28.0133C1.98653 27.5558 1.57783 27.2788 1.20938 27.3993C0.842955 27.5157 0.653699 27.9832 0.790614 28.4428C0.915438 28.8622 1.26576 29.1271 1.60803 29.081L5.19783 36.0648L5.18172 36.0849C4.91998 36.4662 5.08508 37.0401 5.54412 37.3692C5.8079 37.5696 6.15017 37.6364 6.47028 37.5498L8.91848 39.1915C8.96726 39.551 9.1797 39.868 9.49429 40.0504C9.77947 40.2259 10.1273 40.2685 10.4466 40.1668L16.1363 43.4018C16.2149 43.751 16.5471 44.0541 16.99 44.1303C17.4772 44.2166 17.9282 44.0039 18.0873 43.6427L30.4049 41.411C30.683 41.5987 31.0333 41.6455 31.3512 41.5375C31.8565 41.3789 32.1786 40.9314 32.1042 40.51L40.6649 31.5695C41.0474 31.5895 41.436 31.2945 41.5971 30.8269C41.7293 30.4803 41.6762 30.0905 41.4561 29.7914L41.9373 18.3784C42.193 18.1698 42.3299 17.7784 42.2635 17.363C42.183 16.9014 41.8749 16.5522 41.5186 16.482L38.2569 8.94224C38.3899 8.59709 38.265 8.14155 37.9187 7.82846C37.6732 7.59199 37.3286 7.48751 36.9926 7.54748L29.062 1.84405C29.0821 1.42862 28.7318 1.02525 28.2245 0.914873C27.9087 0.837688 27.5749 0.907032 27.3164 1.10352L17.0524 0.387076C16.8551 0.0960835 16.4444 -0.0604527 16.0135 0.0218272C15.6409 0.0773419 15.3263 0.326707 15.188 0.676058L6.45214 5.88985C6.12873 5.86892 5.81253 5.99161 5.58841 6.22498C5.30581 6.48382 5.18174 6.87242 5.26225 7.24648L0.78255 15.4806C0.46846 15.5299 0.204119 15.7414 0.0879507 16.0365ZM0.49262 16.5843C0.351684 16.5221 0.297324 16.3315 0.37383 16.1549C0.45235 15.9803 0.62751 15.89 0.76845 15.9502C0.911394 16.0144 0.963742 16.2051 0.887233 16.3796C0.81073 16.5542 0.633552 16.6445 0.49262 16.5843ZM5.73937 6.53807C5.5783 6.69859 5.55011 6.93542 5.67695 7.0679C5.80379 7.20031 6.03735 7.17824 6.20042 7.01969C6.36151 6.85917 6.3897 6.62036 6.26286 6.48789C6.13602 6.35542 5.90044 6.37755 5.73937 6.53807ZM6.98377 7.08793L7.00595 7.03979L15.0049 4.28238C15.1056 4.39677 15.2385 4.48909 15.3875 4.55331L15.7639 9.98587C15.5624 10.1008 15.4008 10.2745 15.3009 10.4835H11.4393C11.2583 10.0929 10.8664 9.8423 10.4346 9.84138C10.2317 9.84175 10.033 9.89877 9.86084 10.0059L6.98377 7.08793ZM15.3975 1.4487L8.41719 5.61491L14.7793 3.42344C14.8648 3.10196 15.0989 2.84033 15.4095 2.71903L15.6028 1.58717C15.5282 1.55083 15.459 1.50422 15.3975 1.4487ZM15.7116 0.774393C15.6795 0.589763 15.8304 0.409147 16.0519 0.369011C16.2733 0.326867 16.4808 0.441259 16.5149 0.623877C16.5472 0.806503 16.3942 0.987119 16.1747 1.02726C15.9532 1.0714 15.7439 0.955009 15.7116 0.774393ZM17.0664 1.16775C16.9328 1.38731 16.724 1.55126 16.4785 1.62933L16.2953 2.70299C16.4586 2.76351 16.6054 2.86108 16.7242 2.98797L24.7333 1.69957L17.0664 1.16775ZM27.1634 2.20929L24.5582 9.86942C24.4345 9.89815 24.3167 9.94771 24.2098 10.016L17.0645 3.83484L27.1634 2.20929ZM27.9104 2.7351L25.4259 10.038C25.5896 10.1512 25.7202 10.3056 25.8044 10.4856H30.3465C30.3744 10.43 30.4061 10.3764 30.4411 10.325L27.9104 2.7351ZM27.7514 1.50088C27.7876 1.32026 27.997 1.21189 28.2185 1.26005C28.4399 1.30822 28.5869 1.49285 28.5487 1.67748C28.5104 1.8581 28.301 1.96445 28.0796 1.9183C27.8581 1.86813 27.7111 1.68149 27.7514 1.50088ZM36.447 8.1074L28.7862 2.5966L31.2063 9.85333C31.5603 9.80741 31.9149 9.9344 32.1585 10.1945L36.4329 8.33819C36.4268 8.26107 36.4308 8.18346 36.445 8.1074H36.447ZM36.8616 9.12088C36.9531 9.19683 37.0547 9.25964 37.1636 9.30754L39.0622 18.6354L32.2651 11.6335C32.388 11.4543 32.4578 11.2443 32.4665 11.0274L36.8616 9.12088ZM37.21 8.08533C37.0892 8.22181 37.1295 8.45864 37.2966 8.61115C37.4657 8.76162 37.6992 8.7737 37.82 8.63519C37.9408 8.49477 37.9046 8.25793 37.7355 8.1074C37.5664 7.95692 37.3308 7.94688 37.212 8.08533H37.21ZM38.4744 11.3766L40.8139 16.781C40.6156 17.0693 40.5593 17.4318 40.6609 17.7664L40.0428 19.0789L38.4744 11.3766ZM40.8704 25.4907L41.1522 18.7638L40.5925 19.9478C40.7806 20.3036 40.7629 20.7325 40.5462 21.0716L40.8704 25.4907ZM41.0957 30.3072C41.2669 30.3694 41.3494 30.5941 41.2729 30.8109H41.2749C41.1984 31.0276 41.0011 31.152 40.8279 31.0919C40.6548 31.0297 40.5763 30.8048 40.6508 30.5881C40.7252 30.3714 40.9226 30.247 41.0957 30.3072ZM39.5736 20.4696C39.5736 20.6984 39.7407 20.883 39.942 20.883C40.1453 20.883 40.3125 20.6984 40.3125 20.4696C40.3125 20.2388 40.1453 20.0542 39.942 20.0542C39.7407 20.0542 39.5736 20.2388 39.5736 20.4696ZM40.3126 29.8195C40.1877 29.949 40.0934 30.1046 40.0368 30.2751C40.0105 30.3527 39.9917 30.4327 39.9804 30.5139L36.145 33.1087L39.7287 21.8122L40.3126 29.8195ZM33.9443 37.4696L38.8448 32.3522L36.3342 34.05C36.3004 34.2785 36.2011 34.4924 36.0483 34.666C35.8908 34.8525 35.6779 34.984 35.4402 35.0413L33.9443 37.4696ZM34.6147 34.7102L31.4195 39.8919V39.8898C31.2357 39.8596 31.0473 39.8734 30.8699 39.93C30.6177 40.0048 30.3988 40.1635 30.2498 40.3796L23.6702 38.9265C23.6408 38.7377 23.5647 38.559 23.4486 38.4068L25.601 33.8432C25.9463 33.7706 26.2372 33.5401 26.3861 33.2211H30.3464C30.4976 33.5554 30.8066 33.7921 31.1696 33.8518C31.5326 33.9115 31.9014 33.7862 32.1524 33.5181L34.518 34.2426C34.5039 34.4045 34.5375 34.567 34.6147 34.7102ZM31.3028 41.2023C31.5183 41.1361 31.6492 40.9374 31.5968 40.7608C31.5424 40.5822 31.325 40.4939 31.1116 40.5602C30.8961 40.6264 30.7633 40.8251 30.8177 41.0017C30.87 41.1802 31.0854 41.2706 31.3028 41.2023ZM28.6533 40.9334L18.7235 42.7356L22.2005 40.1748C22.6597 40.3368 23.1712 40.1793 23.4589 39.7875L28.6533 40.9334ZM17.5053 42.5409L21.2079 39.8116L11.0505 39.5307L11.0284 39.6069L16.4121 42.6653C16.6599 42.4843 16.9724 42.4152 17.2738 42.4746C17.353 42.4889 17.4306 42.5111 17.5053 42.5409ZM17.4852 43.5222C17.455 43.7069 17.2477 43.8233 17.0262 43.7832C16.8047 43.743 16.6497 43.5624 16.6819 43.3818C16.7141 43.1971 16.9195 43.0807 17.1409 43.1209C17.3644 43.161 17.5155 43.3416 17.4852 43.5222ZM10.517 38.3145C10.6544 38.3991 10.7741 38.5095 10.8693 38.6396L21.4656 38.9326C21.4737 38.8698 21.4878 38.808 21.5079 38.748L17.2315 33.8332C16.7227 33.9434 16.205 33.6887 15.9832 33.2191H11.4391C11.3281 33.4546 11.1389 33.6446 10.9036 33.7569L10.517 38.3145ZM10.8797 32.7254C10.8797 32.9763 10.6803 33.181 10.4367 33.181H10.4347C10.1891 33.181 9.98774 32.9763 9.98774 32.7254C9.98774 32.4746 10.1891 32.2719 10.4367 32.2719C10.6803 32.2719 10.8797 32.4746 10.8797 32.7254ZM10.2373 39.6029C10.348 39.4102 10.2654 39.1493 10.052 39.0249C9.84062 38.8965 9.57689 38.9506 9.46812 39.1453C9.35538 39.338 9.43792 39.5969 9.65134 39.7233C9.86476 39.8497 10.1265 39.7955 10.2373 39.6029ZM9.65747 38.1359L2.35507 28.9305L9.32125 32.8197C9.35464 33.2478 9.62726 33.6205 10.0259 33.783L9.65747 38.1359ZM6.97169 36.9518L8.61057 38.0476L3.32151 31.1841L5.89456 35.7738C6.10967 35.7905 6.31592 35.8662 6.4905 35.9925C6.83278 36.2354 7.01397 36.6147 6.97372 36.9518H6.97169ZM6.06167 36.5525C6.24693 36.6849 6.31133 36.9137 6.20661 37.0663L6.20465 37.0642C6.10194 37.2188 5.86839 37.2348 5.68114 37.1043C5.49793 36.9739 5.4335 36.7431 5.5382 36.5926C5.6429 36.4381 5.87846 36.422 6.06167 36.5525ZM17.4208 32.7254C17.4208 32.4806 17.2296 32.2819 16.986 32.2819C16.743 32.2852 16.548 32.4832 16.5491 32.7254C16.5469 32.9685 16.7422 33.1677 16.986 33.1709C17.2298 33.1677 17.4251 32.9685 17.4229 32.7254H17.4208ZM17.499 23.0122C17.4152 23.0973 17.3009 23.1457 17.1813 23.1467C17.0618 23.1457 16.9477 23.0972 16.8643 23.0121C16.7808 22.927 16.7347 22.8122 16.7363 22.6932C16.7347 22.574 16.7807 22.4589 16.8642 22.3735C16.9476 22.2881 17.0616 22.2392 17.1813 22.2376C17.4269 22.2376 17.6283 22.4423 17.6283 22.6932C17.6293 22.8124 17.5828 22.9272 17.499 23.0122ZM23.0138 39.2497C23.0138 38.9988 22.8146 38.7961 22.5689 38.7961C22.4493 38.7972 22.335 38.8455 22.2512 38.9306C22.1674 39.0157 22.1209 39.1305 22.122 39.2497C22.122 39.5005 22.3233 39.7052 22.5689 39.7052C22.6885 39.7036 22.8026 39.6547 22.8861 39.5693C22.9695 39.4839 23.0155 39.3689 23.0138 39.2497ZM24.7292 33.6466L22.6877 37.9713C22.4817 37.9505 22.2739 37.9873 22.0877 38.0777L17.9402 33.3134C18.112 33.0331 18.1537 32.6925 18.0544 32.3793C17.9553 32.0661 17.7249 31.811 17.4228 31.6799V23.801C17.4889 23.7868 17.5536 23.7666 17.6161 23.7408L24.4212 32.1495C24.1234 32.6534 24.2564 33.3002 24.7292 33.6466ZM25.8287 32.7254C25.8287 32.4746 25.6273 32.2718 25.3816 32.2718C25.1381 32.2718 24.9367 32.4746 24.9367 32.7254C24.9367 32.9762 25.1381 33.181 25.3817 33.181C25.6311 33.1776 25.8309 32.974 25.8287 32.7254ZM31.3531 32.2819C31.5948 32.2819 31.7881 32.4806 31.7881 32.7254C31.7881 32.9702 31.5948 33.1709 31.3531 33.1709C31.1116 33.1709 30.9162 32.9722 30.9162 32.7254C30.9162 32.4806 31.1116 32.2819 31.3531 32.2819ZM31.3531 11.4328C31.4723 11.4312 31.5858 11.3825 31.6689 11.2974C31.7519 11.2124 31.7977 11.0979 31.7961 10.9792C31.7961 10.7284 31.5988 10.5257 31.3531 10.5257C31.2335 10.5267 31.1193 10.5751 31.0354 10.6601C30.9516 10.7452 30.9052 10.86 30.9062 10.9792C30.9046 11.0986 30.9509 11.2137 31.0348 11.2988C31.1188 11.384 31.2334 11.4322 31.3531 11.4328ZM35.7946 33.8974C35.9336 34.0198 35.9214 34.2586 35.7745 34.4312C35.6235 34.6038 35.394 34.644 35.2571 34.5195C35.1201 34.3971 35.1302 34.1583 35.2792 33.9877C35.4282 33.8131 35.6597 33.777 35.7946 33.8974ZM39.0462 21.0676C38.9333 20.8885 38.8739 20.6811 38.875 20.4696C38.875 20.2488 38.9354 20.0442 39.0401 19.8775L31.788 12.4081V31.6798C32.19 31.8563 32.4541 32.2477 32.4665 32.6853L34.9269 33.4378C35.0033 33.3687 35.0886 33.31 35.1805 33.2633L39.0462 21.0676ZM15.2604 11.3746C15.4175 11.806 15.8262 12.1171 16.3073 12.1171C16.4046 12.1155 16.5013 12.102 16.5953 12.0769L23.6078 20.7666C23.4731 21.1118 23.5176 21.5009 23.7268 21.8069C23.9361 22.1129 24.2832 22.2966 24.6547 22.2978C24.9544 22.2952 25.2408 22.1737 25.4505 21.9602C25.6601 21.7466 25.7758 21.4587 25.7721 21.16C25.7728 20.7671 25.5704 20.4015 25.2365 20.1927V12.0248C25.5203 11.9 25.7407 11.6652 25.8466 11.3746H30.3062C30.4149 11.6676 30.6343 11.9043 30.9162 12.0248V31.6799C30.6324 31.8046 30.4121 32.0395 30.3062 32.33H26.4285C26.2377 31.7984 25.6779 31.493 25.1258 31.6197L18.2241 23.0946C18.2724 22.9681 18.2965 22.8337 18.2965 22.6932C18.3003 22.3948 18.1848 22.1071 17.9756 21.8937C17.7664 21.6802 17.4805 21.5585 17.1811 21.5553C16.5581 21.563 16.0591 22.0722 16.0658 22.6932C16.0636 23.066 16.244 23.4165 16.549 23.6324V31.6799C16.266 31.8051 16.0464 32.0399 15.9409 32.3301H11.4794C11.3751 32.0391 11.1552 31.8039 10.8713 31.6799V12.0248C11.155 11.9005 11.375 11.6654 11.4794 11.3746H15.2604ZM15.8241 3.99538C16.0657 3.99538 16.2671 3.81477 16.2671 3.58999C16.2671 3.36523 16.0657 3.18662 15.8241 3.18662C15.5765 3.18662 15.3752 3.36724 15.3752 3.58798C15.3752 3.80874 15.5765 3.99538 15.8221 3.99538H15.8241ZM16.3094 10.5257C16.5531 10.5257 16.7524 10.7284 16.7524 10.9792C16.7546 11.2267 16.5557 11.4294 16.3074 11.4328C16.1878 11.4317 16.0735 11.3833 15.9897 11.2983C15.9059 11.2132 15.8594 11.0984 15.8605 10.9792C15.8594 10.8596 15.9062 10.7446 15.9904 10.6595C16.0747 10.5743 16.1894 10.5262 16.3094 10.5257ZM25.1017 21.1599C25.1017 20.9091 24.9004 20.7064 24.6547 20.7064C24.4091 20.7064 24.2098 20.9091 24.2098 21.1599C24.2098 21.4128 24.4091 21.6135 24.6547 21.6135C24.9004 21.6135 25.1017 21.4128 25.1017 21.1599ZM25.1176 11.2983C25.0338 11.3833 24.9195 11.4317 24.7999 11.4328C24.6805 11.4317 24.5664 11.3833 24.4829 11.2981C24.3994 11.213 24.3533 11.0982 24.355 10.9792C24.355 10.7284 24.5542 10.5257 24.7999 10.5257C25.0456 10.5257 25.2468 10.7284 25.2468 10.9792C25.2479 11.0984 25.2014 11.2132 25.1176 11.2983ZM24.3648 12.0248C23.8692 11.8081 23.595 11.2739 23.7085 10.7464L16.4745 4.49108C16.4087 4.52925 16.3392 4.56085 16.2671 4.58541L16.6376 9.89149C17.1085 10.0457 17.4257 10.4852 17.4228 10.9792C17.4228 11.1799 17.3724 11.3666 17.2819 11.5271L24.2138 20.1164C24.2626 20.095 24.3132 20.0776 24.3648 20.0642V12.0248ZM10.1181 11.2988C10.0347 11.2142 9.98842 11.0999 9.98952 10.9812L9.9875 10.9792C9.9875 10.7284 10.1888 10.5257 10.4344 10.5257C10.6801 10.5257 10.8814 10.7284 10.8814 10.9792C10.8825 11.0984 10.836 11.2132 10.7522 11.2983C10.6683 11.3833 10.5541 11.4317 10.4344 11.4328C10.3154 11.4317 10.2016 11.3835 10.1181 11.2988ZM41.6193 17.0439C41.4381 17.074 41.3234 17.2827 41.3616 17.5075C41.4019 17.7343 41.577 17.8928 41.7562 17.8607C41.9374 17.8306 42.0502 17.6198 42.0119 17.3951C41.9756 17.1683 41.7985 17.0098 41.6193 17.0439ZM1.57576 28.0936C1.63012 28.2763 1.55361 28.4649 1.40865 28.5111H1.40664C1.26168 28.5572 1.09658 28.4488 1.04424 28.2642C0.991886 28.0816 1.06437 27.8929 1.21336 27.8468C1.35832 27.8006 1.5214 27.911 1.57576 28.0936Z" fill="#50C4CF"/>
<path d="M65.8346 20.3425L72.1215 0.924683H67.296L63.022 15.2106L58.7481 0.924683H53.9226L60.2095 20.3425H65.8346ZM82.0089 7.77639C81.0438 6.63907 79.6651 6.08427 77.9004 6.08427C76.0805 6.08427 74.5363 6.8055 73.2404 8.22023C71.9444 9.63496 71.3102 11.3548 71.3102 13.4076C71.3102 15.4603 71.9444 17.2079 73.2404 18.6226C74.5363 20.0374 76.0805 20.7308 77.9004 20.7308C79.6651 20.7308 81.0438 20.1761 82.0089 19.0387V20.3425H86.145V6.47263H82.0089V7.77639ZM76.3562 15.8764C75.7496 15.2661 75.4463 14.4339 75.4463 13.4076C75.4463 12.3812 75.7496 11.549 76.3562 10.9387C76.9629 10.3284 77.7625 10.0233 78.7276 10.0233C79.6927 10.0233 80.4923 10.3284 81.099 10.9387C81.7056 11.549 82.0089 12.3812 82.0089 13.4076C82.0089 14.4339 81.7056 15.2661 81.099 15.8764C80.4923 16.4867 79.6927 16.7918 78.7276 16.7918C77.7625 16.7918 76.9629 16.4867 76.3562 15.8764ZM97.2586 6.08427C95.4663 6.08427 94.1427 6.63907 93.3155 7.77639V6.47263H89.1794V20.3425H93.3155V12.7695C93.3155 10.8832 94.3081 9.91235 95.8799 9.91235C97.2861 9.91235 98.2788 10.8 98.2788 12.4367V20.3425H102.415V11.8264C102.415 10.0233 101.919 8.63633 100.926 7.60996C99.9608 6.58359 98.72 6.08427 97.2586 6.08427ZM116.699 0.924683H112.287V20.3425H123.592V16.0706H116.699V0.924683ZM135.272 7.77639C134.307 6.63907 132.928 6.08427 131.164 6.08427C129.344 6.08427 127.8 6.8055 126.504 8.22023C125.208 9.63496 124.573 11.3548 124.573 13.4076C124.573 15.4603 125.208 17.2079 126.504 18.6226C127.8 20.0374 129.344 20.7308 131.164 20.7308C132.928 20.7308 134.307 20.1761 135.272 19.0387V20.3425H139.408V6.47263H135.272V7.77639ZM129.619 15.8764C129.013 15.2661 128.709 14.4339 128.709 13.4076C128.709 12.3812 129.013 11.549 129.619 10.9387C130.226 10.3284 131.026 10.0233 131.991 10.0233C132.956 10.0233 133.756 10.3284 134.362 10.9387C134.969 11.549 135.272 12.3812 135.272 13.4076C135.272 14.4339 134.969 15.2661 134.362 15.8764C133.756 16.4867 132.956 16.7918 131.991 16.7918C131.026 16.7918 130.226 16.4867 129.619 15.8764ZM150.522 6.08427C148.729 6.08427 147.406 6.63907 146.579 7.77639V6.47263H142.443V20.3425H146.579V12.7695C146.579 10.8832 147.571 9.91235 149.143 9.91235C150.549 9.91235 151.542 10.8 151.542 12.4367V20.3425H155.678V11.8264C155.678 10.0233 155.182 8.63633 154.189 7.60996C153.224 6.58359 151.983 6.08427 150.522 6.08427ZM168.639 7.88735C167.673 6.69455 166.35 6.08427 164.613 6.08427C162.683 6.08427 161.056 6.77776 159.76 8.16475C158.464 9.524 157.83 11.1884 157.83 13.1302C157.83 15.0719 158.464 16.7363 159.76 18.1233C161.056 19.4826 162.683 20.1761 164.613 20.1761C166.35 20.1761 167.673 19.5658 168.639 18.373V19.649C168.639 21.563 167.48 22.6171 165.523 22.6171C164.061 22.6171 163.013 22.0346 162.379 20.8695L158.85 22.9223C160.091 25.1692 162.269 26.2788 165.385 26.2788C167.398 26.2788 169.135 25.724 170.541 24.5867C171.947 23.4771 172.664 21.8404 172.664 19.649V6.47263H168.639V7.88735ZM162.903 15.4603C162.269 14.8778 161.966 14.1011 161.966 13.1302C161.966 12.1593 162.269 11.3826 162.903 10.8C163.537 10.2175 164.337 9.91235 165.302 9.91235C166.267 9.91235 167.067 10.2175 167.701 10.8C168.335 11.3826 168.639 12.1593 168.639 13.1302C168.639 14.1011 168.335 14.8778 167.701 15.4603C167.067 16.0428 166.267 16.348 165.302 16.348C164.337 16.348 163.537 16.0428 162.903 15.4603Z" fill="black"/>
<path d="M182.73 0.924683V20.3425H190.451C193.125 20.3425 195.331 19.4271 197.124 17.5685C198.916 15.71 199.826 13.3798 199.826 10.6336C199.826 7.88735 198.916 5.58496 197.124 3.7264C195.331 1.86783 193.125 0.924683 190.451 0.924683H182.73ZM187.142 16.0706V5.1966H190.451C191.967 5.1966 193.208 5.69592 194.146 6.69455C195.111 7.66544 195.579 8.99694 195.579 10.6336C195.579 12.2702 195.111 13.6017 194.146 14.6004C193.208 15.5713 191.967 16.0706 190.451 16.0706H187.142ZM213.97 18.6226C215.376 17.2079 216.093 15.4603 216.093 13.4076C216.093 11.3548 215.376 9.63496 213.97 8.22023C212.564 6.80551 210.827 6.08427 208.786 6.08427C206.746 6.08427 205.009 6.80551 203.602 8.22023C202.196 9.63496 201.479 11.3548 201.479 13.4076C201.479 15.4603 202.196 17.2079 203.602 18.6226C205.009 20.0374 206.746 20.7309 208.786 20.7309C210.827 20.7309 212.564 20.0374 213.97 18.6226ZM206.525 15.7654C205.919 15.1552 205.615 14.3785 205.615 13.4076C205.615 12.4367 205.919 11.66 206.525 11.0497C207.132 10.4394 207.876 10.1343 208.786 10.1343C209.696 10.1343 210.441 10.4394 211.047 11.0497C211.654 11.66 211.957 12.4367 211.957 13.4076C211.957 14.3785 211.654 15.1552 211.047 15.7654C210.441 16.3757 209.696 16.6808 208.786 16.6808C207.876 16.6808 207.132 16.3757 206.525 15.7654ZM225.051 20.7309C227.725 20.7309 230.069 19.3439 231.282 17.1524L227.67 15.0719C227.201 16.0983 226.291 16.6254 224.995 16.6254C223.203 16.6254 221.88 15.2939 221.88 13.4076C221.88 11.5213 223.203 10.1898 224.995 10.1898C226.291 10.1898 227.174 10.7168 227.67 11.7432L231.282 9.63496C230.069 7.499 227.698 6.08427 225.051 6.08427C222.955 6.08427 221.218 6.77777 219.812 8.19249C218.433 9.60722 217.743 11.3271 217.743 13.4076C217.743 15.488 218.433 17.2079 219.812 18.6226C221.218 20.0374 222.955 20.7309 225.051 20.7309ZM241.026 6.47263H238.186V2.58907L234.05 3.83735V6.47263H231.844V10.4671H234.05V15.3771C234.05 17.4021 234.546 18.7891 235.567 19.5935C236.587 20.3702 238.407 20.6199 241.026 20.3425V16.5699C239.013 16.6808 238.186 16.4867 238.186 15.3771V10.4671H241.026V6.47263ZM255.439 18.6226C256.845 17.2079 257.562 15.4603 257.562 13.4076C257.562 11.3548 256.845 9.63496 255.439 8.22023C254.033 6.80551 252.296 6.08427 250.255 6.08427C248.215 6.08427 246.477 6.80551 245.071 8.22023C243.665 9.63496 242.948 11.3548 242.948 13.4076C242.948 15.4603 243.665 17.2079 245.071 18.6226C246.477 20.0374 248.215 20.7309 250.255 20.7309C252.296 20.7309 254.033 20.0374 255.439 18.6226ZM247.994 15.7654C247.387 15.1552 247.084 14.3785 247.084 13.4076C247.084 12.4367 247.387 11.66 247.994 11.0497C248.601 10.4394 249.345 10.1343 250.255 10.1343C251.165 10.1343 251.91 10.4394 252.516 11.0497C253.123 11.66 253.426 12.4367 253.426 13.4076C253.426 14.3785 253.123 15.1552 252.516 15.7654C251.91 16.3757 251.165 16.6808 250.255 16.6808C249.345 16.6808 248.601 16.3757 247.994 15.7654ZM264.038 6.47263H259.902V20.3425H264.038V14.0733C264.038 12.825 264.479 11.9374 265.334 11.438C266.216 10.911 267.154 10.7445 268.174 10.911V6.19523C266.299 6.19523 264.562 7.16612 264.038 8.94146V6.47263Z" fill="#50C4CF"/>
<path d="M54.1982 30.5137V31.8699H57.3539V41.3014H58.7633V31.8699H61.9343V30.5137H54.1982ZM63.4919 33.5959H62.1592V41.3014H63.4919V37.2175C63.4919 36.3699 63.7217 35.7688 64.1966 35.3836C64.6715 34.9983 65.223 34.8288 65.8817 34.8596V33.4572C64.7327 33.4572 63.9362 33.9349 63.4919 34.8904V33.5959ZM72.4706 37.6798C72.4706 39.4058 71.5821 40.2226 70.2494 40.2226C69.0698 40.2226 68.3498 39.4983 68.3498 38.25V33.5959H67.0171V38.3271C67.0171 40.2842 68.1967 41.5017 69.989 41.5017C71.1072 41.5017 71.9345 41.0702 72.4706 40.1918V41.3014H73.8034V33.5959H72.4706V37.6798ZM79.6466 33.3955C78.5283 33.3955 77.7011 33.8271 77.165 34.7055V33.5959H75.8322V41.3014H77.165V37.2175C77.165 35.4914 78.0535 34.6747 79.3862 34.6747C80.5658 34.6747 81.2857 35.399 81.2857 36.6473V41.3014H82.6185V36.5702C82.6185 34.613 81.4389 33.3955 79.6466 33.3955ZM90.8368 34.9212C90.1781 33.9041 89.213 33.3955 87.9568 33.3955C86.8692 33.3955 85.9347 33.7808 85.1841 34.5668C84.4335 35.3373 84.0505 36.2774 84.0505 37.4024C84.0505 38.5274 84.4335 39.4675 85.1841 40.2534C85.9347 41.0394 86.8692 41.4247 87.9568 41.4247C89.1976 41.4247 90.1627 40.9161 90.8368 39.8836V40.9777C90.8368 42.4418 89.8717 43.3356 88.2785 43.3356C87.0377 43.3356 86.1951 42.9041 85.7815 42.0411L84.6173 42.7038C85.2454 43.9212 86.5322 44.5839 88.2479 44.5839C89.3202 44.5839 90.2393 44.2603 91.0053 43.6284C91.7712 42.9966 92.1542 42.1182 92.1542 40.9777V33.5959H90.8368V34.9212ZM90.8368 37.4024C90.8368 38.1884 90.5763 38.8356 90.0555 39.3596C89.5347 39.8836 88.8913 40.1455 88.11 40.1455C87.3287 40.1455 86.6853 39.8836 86.1645 39.3596C85.6437 38.8356 85.3832 38.1884 85.3832 37.4024C85.3832 36.6319 85.6437 35.9846 86.1645 35.4606C86.6853 34.9366 87.3287 34.6747 88.11 34.6747C88.8913 34.6747 89.5347 34.9366 90.0555 35.4606C90.5763 35.9846 90.8368 36.6319 90.8368 37.4024ZM102.17 33.5959H100.132V31.4384L98.7995 31.839V33.5959H97.283V34.8904H98.7995V39.0668C98.7995 40.9777 99.8412 41.6096 102.17 41.3014V40.0993C100.806 40.161 100.132 40.2534 100.132 39.0668V34.8904H102.17V33.5959ZM109.016 32.5942H110.441L108.817 30.5137H107.346L105.722 32.5942H107.147L108.082 31.3459L109.016 32.5942ZM110.134 34.9212C109.476 33.9041 108.51 33.3955 107.239 33.3955C106.167 33.3955 105.248 33.7962 104.497 34.5822C103.746 35.3682 103.363 36.3236 103.363 37.4486C103.363 38.5736 103.746 39.5445 104.497 40.3305C105.248 41.1164 106.167 41.5017 107.239 41.5017C108.51 41.5017 109.476 40.9932 110.134 39.976V41.3014H111.467V33.5959H110.134V34.9212ZM107.408 40.2072C106.642 40.2072 105.998 39.9452 105.477 39.4212C104.957 38.8819 104.696 38.2346 104.696 37.4486C104.696 36.6627 104.957 36.0154 105.477 35.4914C105.998 34.9521 106.642 34.6901 107.408 34.6901C108.189 34.6901 108.832 34.9521 109.353 35.4914C109.874 36.0154 110.134 36.6627 110.134 37.4486C110.134 38.2346 109.874 38.8819 109.353 39.4212C108.832 39.9452 108.189 40.2072 107.408 40.2072ZM121.759 33.3955C120.687 33.3955 119.89 33.8271 119.354 34.7055C118.879 33.8271 118.128 33.3955 117.102 33.3955C116.106 33.3955 115.34 33.8116 114.819 34.6284V33.5959H113.487V41.3014H114.819V37.0171C114.819 35.4606 115.662 34.6747 116.78 34.6747C117.776 34.6747 118.404 35.3682 118.404 36.5548V41.3014H119.737V37.0171C119.737 35.4298 120.472 34.6747 121.621 34.6747C122.647 34.6747 123.306 35.3682 123.306 36.5548V41.3014H124.639V36.5086C124.639 34.5976 123.475 33.3955 121.759 33.3955ZM134.483 33.5959H132.445V31.4384L131.113 31.839V33.5959H129.596V34.8904H131.113V39.0668C131.113 40.9777 132.154 41.6096 134.483 41.3014V40.0993C133.119 40.161 132.445 40.2534 132.445 39.0668V34.8904H134.483V33.5959ZM142.785 32.6404C142.785 33.3185 142.678 33.5959 142.004 33.5959H141.391V37.6798C141.391 39.4058 140.502 40.2226 139.17 40.2226C137.99 40.2226 137.27 39.4983 137.27 38.25V33.5959H135.937V38.3271C135.937 40.2842 137.117 41.5017 138.909 41.5017C140.028 41.5017 140.855 41.0702 141.391 40.1918V41.3014H142.724V34.5668C143.658 34.3819 143.965 33.75 143.965 32.6404V32.4555H142.785V32.6404ZM151.539 39.8682L149.134 33.5959H147.694L150.758 41.3014H152.32L155.384 33.5959H153.944L151.539 39.8682ZM161.658 32.5942H162.991L161.474 30.6524H160.111L158.594 32.5942H159.927L160.8 31.4229L161.658 32.5942ZM162.853 34.9212C162.194 33.9041 161.229 33.3955 159.957 33.3955C158.885 33.3955 157.966 33.7962 157.215 34.5822C156.465 35.3682 156.082 36.3236 156.082 37.4486C156.082 38.5736 156.465 39.5445 157.215 40.3305C157.966 41.1164 158.885 41.5017 159.957 41.5017C161.229 41.5017 162.194 40.9932 162.853 39.976V41.3014H164.186V33.5959H162.853V34.9212ZM160.126 40.2072C159.36 40.2072 158.717 39.9452 158.196 39.4212C157.675 38.8819 157.415 38.2346 157.415 37.4486C157.415 36.6627 157.675 36.0154 158.196 35.4914C158.717 34.9521 159.36 34.6901 160.126 34.6901C160.907 34.6901 161.551 34.9521 162.072 35.4914C162.592 36.0154 162.853 36.6627 162.853 37.4486C162.853 38.2346 162.592 38.8819 162.072 39.4212C161.551 39.9452 160.907 40.2072 160.126 40.2072ZM162.332 31.1764H163.527L164.982 29.2808H163.466L162.332 31.1764ZM170.02 33.3955C168.901 33.3955 168.074 33.8271 167.538 34.7055V33.5959H166.205V41.3014H167.538V37.2175C167.538 35.4914 168.426 34.6747 169.759 34.6747C170.939 34.6747 171.659 35.399 171.659 36.6473V41.3014H172.991V36.5702C172.991 34.613 171.812 33.3955 170.02 33.3955ZM179.83 35.6764C179.83 35.0137 180.443 34.6438 181.194 34.6438C182.006 34.6438 182.557 34.9675 182.833 35.6301L183.951 34.9983C183.461 33.9966 182.435 33.3955 181.194 33.3955C180.413 33.3955 179.769 33.6113 179.248 34.0428C178.743 34.4743 178.482 35.0291 178.482 35.6918C178.482 37.3253 180.045 37.726 181.255 38.0497C182.098 38.25 182.772 38.589 182.772 39.1901C182.772 39.9144 182.128 40.238 181.255 40.238C180.321 40.238 179.601 39.7757 179.356 39.036L178.207 39.6986C178.651 40.7928 179.769 41.5017 181.255 41.5017C182.098 41.5017 182.772 41.286 183.308 40.8699C183.844 40.4538 184.12 39.8836 184.12 39.1901C184.135 37.5411 182.542 37.0942 181.347 36.8322C180.504 36.601 179.83 36.2774 179.83 35.6764ZM189.604 30.5137L188.378 32.5479H189.665L191.212 30.5137H189.604ZM192.377 32.6404C192.377 33.3185 192.269 33.5959 191.595 33.5959H190.983V37.6798C190.983 39.4058 190.094 40.2226 188.761 40.2226C187.582 40.2226 186.862 39.4983 186.862 38.25V33.5959H185.529V38.3271C185.529 40.2842 186.709 41.5017 188.501 41.5017C189.619 41.5017 190.446 41.0702 190.983 40.1918V41.3014H192.315V34.5668C193.25 34.3819 193.556 33.75 193.556 32.6404V32.4555H192.377V32.6404ZM197.945 41.5017C199.431 41.5017 200.733 40.7158 201.391 39.4983L200.258 38.8356C199.829 39.6524 198.971 40.1764 197.945 40.1764C197.179 40.1764 196.535 39.9144 196.015 39.3904C195.509 38.8664 195.249 38.2192 195.249 37.4486C195.249 36.6627 195.509 36.0154 196.015 35.4914C196.535 34.9675 197.179 34.7055 197.945 34.7055C198.971 34.7055 199.829 35.2449 200.212 36.0616L201.33 35.4144C200.733 34.1815 199.461 33.3955 197.945 33.3955C196.796 33.3955 195.831 33.7808 195.065 34.5668C194.299 35.3373 193.916 36.2928 193.916 37.4486C193.916 38.6045 194.299 39.5599 195.065 40.3459C195.831 41.1164 196.796 41.5017 197.945 41.5017ZM209.248 37.3253L212.909 33.5959H211.194L207.885 37.0017V30.5137H206.552V41.3014H207.885V37.649L211.378 41.3014H213.032L209.248 37.3253ZM218.085 33.3955C216.967 33.3955 216.14 33.8271 215.604 34.7055V30.5137H214.271V41.3014H215.604V37.2175C215.604 35.4914 216.492 34.6747 217.825 34.6747C219.005 34.6747 219.725 35.399 219.725 36.6473V41.3014H221.057V36.5702C221.057 34.613 219.878 33.3955 218.085 33.3955ZM229.383 40.3305C230.164 39.5445 230.562 38.589 230.562 37.4486C230.562 36.3082 230.164 35.3527 229.383 34.5668C228.601 33.7808 227.636 33.3955 226.518 33.3955C225.4 33.3955 224.435 33.7808 223.653 34.5668C222.872 35.3527 222.489 36.3082 222.489 37.4486C222.489 38.589 222.872 39.5445 223.653 40.3305C224.435 41.1164 225.4 41.5017 226.518 41.5017C227.636 41.5017 228.601 41.1164 229.383 40.3305ZM226.518 40.1918C225.767 40.1918 225.124 39.9298 224.603 39.4058C224.082 38.8819 223.822 38.2346 223.822 37.4486C223.822 36.6627 224.082 36.0154 224.603 35.4914C225.124 34.9675 225.767 34.7055 226.518 34.7055C227.284 34.7055 227.927 34.9675 228.448 35.4914C228.969 36.0154 229.23 36.6627 229.23 37.4486C229.23 38.2346 228.969 38.8819 228.448 39.4058C227.927 39.9298 227.284 40.1918 226.518 40.1918ZM236.484 32.5942C236.438 32.2397 236.561 32.1473 236.76 32.0548C237.051 31.9007 237.327 31.5616 237.327 30.976C237.327 30.1901 236.729 29.8202 236.009 29.8202C235.335 29.8202 234.738 30.113 234.447 30.8373L235.304 31.2072C235.427 30.8373 235.733 30.7295 236.009 30.7295C236.27 30.7295 236.392 30.8373 236.392 30.9914C236.392 31.238 236.193 31.3305 236.101 31.3767C236.086 31.3921 235.856 31.5308 235.856 31.5308C235.565 31.762 235.55 31.9161 235.55 32.5942H236.484ZM239.486 38.0651C239.517 37.8647 239.532 37.6644 239.532 37.464C239.532 36.339 239.18 35.3836 238.46 34.5976C237.755 33.7962 236.836 33.3955 235.718 33.3955C234.538 33.3955 233.573 33.7808 232.823 34.5514C232.072 35.3219 231.704 36.2928 231.704 37.4486C231.704 38.6199 232.087 39.5908 232.838 40.3613C233.604 41.1164 234.6 41.5017 235.81 41.5017C237.311 41.5017 238.429 40.9161 239.18 39.7603L238.046 39.113C237.587 39.8682 236.852 40.238 235.841 40.238C234.385 40.238 233.328 39.4366 233.068 38.0651H239.486ZM235.718 34.6592C236.944 34.6592 237.955 35.4298 238.184 36.8938H233.068C233.298 35.5377 234.293 34.6592 235.718 34.6592Z" fill="black" fill-opacity="0.6"/>
</svg>
